# xmcd
#
# Track frame offsets: 
#        150
#        21827
#        38119
#        55259
#        87796
#        104111
#        117981
#        137806
#        159783
#        180313
#        203798
#
# Disc length: 2945 seconds
#
# Revision: 0
# Processed by: cddbd v1.5.2PL0 Copyright (c) Steve Scherf et al.
# Submitted via: ExactAudioCopy v1.0b3
#
DISCID=8c0b7f0b
DTITLE=Beth Hart - Bang Bang Boom Boom
DYEAR=2012
DGENRE=Blues
TTITLE0=Baddest Blues
TTITLE1=Bang Bang Boom Boom
TTITLE2=Better Man
TTITLE3=Caught Out In The Rain
TTITLE4=Swing My Thing Back Around
TTITLE5=With You Everyday
TTITLE6=Thru The Window Of My Mind
TTITLE7=Spirit Of God
TTITLE8=There In Your Heart
TTITLE9=The Ugliest House On The Block
TTITLE10=Everything Must Change
EXTD=
EXTT0=
EXTT1=
EXTT2=
EXTT3=
EXTT4=
EXTT5=
EXTT6=
EXTT7=
EXTT8=
EXTT9=
EXTT10=
PLAYORDER=
